# File generated by ImageToStl.com - Free Image and 3D model conversion tools

o obj1
v 319.019104 55.59500122 301.36154175
v 319.019104 53.09500122 301.36154175
v 318.5350647 53.09500122 301.20690918
v 318.5350647 55.59500122 301.20690918
v 318.0333252 53.09500122 301.12619019
v 318.0333252 55.59500122 301.12619019
v 317.52520752 53.09500122 301.12112427
v 317.52520752 55.59500122 301.12112427
v 317.02200317 53.09500122 301.1918335
v 317.02200317 55.59500122 301.1918335
v 316.53494263 53.09500122 301.33676147
v 316.53494263 55.59500122 301.33676147
v 316.07492065 53.09500122 301.55264282
v 316.07492065 55.59500122 301.55264282
v 315.65222168 53.09500122 301.83474731
v 315.65222168 55.59500122 301.83474731
v 315.27627563 53.09500122 302.17663574
v 315.27627563 55.59500122 302.17663574
v 314.95550537 53.09500122 302.57077026
v 314.95550537 55.59500122 302.57077026
v 314.69702148 53.09500122 303.00830078
v 314.69702148 55.59500122 303.00830078
v 314.50668335 53.09500122 303.47943115
v 314.50668335 55.59500122 303.47943115
v 314.38867188 53.09500122 303.97369385
v 314.38867188 55.59500122 303.97369385
v 314.34564209 53.09500122 304.4800415
v 314.34564209 55.59500122 304.4800415
v 314.37857056 53.09500122 304.9871521
v 314.37857056 55.59500122 304.9871521
v 314.48669434 53.09500122 305.4836731
v 314.48669434 55.59500122 305.4836731
v 314.66760254 53.09500122 305.95852661
v 314.66760254 55.59500122 305.95852661
v 314.91729736 53.09500122 306.40112305
v 314.91729736 55.59500122 306.40112305
v 315.23013306 53.09500122 306.80157471
v 315.23013306 55.59500122 306.80157471
v 315.59921265 53.09500122 307.15090942
v 315.59921265 55.59500122 307.15090942
v 316.01617432 53.09500122 307.44134521
v 316.01617432 55.59500122 307.44134521
v 316.47177124 53.09500122 307.66638184
v 316.47177124 55.59500122 307.66638184
v 328.71060181 53.09500122 312.61120605
v 328.71060181 55.59500122 312.61120605
v 329.19470215 53.09500122 312.76580811
v 329.19470215 55.59500122 312.76580811
v 329.69641113 53.09500122 312.84655762
v 329.69641113 55.59500122 312.84655762
v 330.20455933 53.09500122 312.85162354
v 330.20455933 55.59500122 312.85162354
v 330.70776367 53.09500122 312.78091431
v 330.70776367 55.59500122 312.78091431
v 331.19482422 53.09500122 312.63595581
v 331.19482422 55.59500122 312.63595581
v 331.65484619 53.09500122 312.42007446
v 331.65484619 55.59500122 312.42007446
v 332.07754517 53.09500122 312.13800049
v 332.07754517 55.59500122 312.13800049
v 332.45349121 53.09500122 311.79611206
v 332.45349121 55.59500122 311.79611206
v 332.77426147 53.09500122 311.40197754
v 332.77426147 55.59500122 311.40197754
v 333.03271484 53.09500122 310.96444702
v 333.03271484 55.59500122 310.96444702
v 333.2230835 53.09500122 310.49328613
v 333.2230835 55.59500122 310.49328613
v 333.34109497 53.09500122 309.99902344
v 333.34109497 55.59500122 309.99902344
v 333.38412476 53.09500122 309.49267578
v 333.38412476 55.59500122 309.49267578
v 333.35119629 53.09500122 308.9855957
v 333.35119629 55.59500122 308.9855957
v 333.24307251 53.09500122 308.48904419
v 333.24307251 55.59500122 308.48904419
v 333.06213379 53.09500122 308.01419067
v 333.06213379 55.59500122 308.01419067
v 332.81246948 53.09500122 307.57159424
v 332.81246948 55.59500122 307.57159424
v 332.49960327 53.09500122 307.1711731
v 332.49960327 55.59500122 307.1711731
v 332.1305542 53.09500122 306.82183838
v 332.1305542 55.59500122 306.82183838
v 331.71356201 53.09500122 306.53137207
v 331.71356201 55.59500122 306.53137207
v 331.25793457 53.09500122 306.30633545
v 331.25793457 55.59500122 306.30633545
v 332.88412476 52.59500122 309.48770142
v 332.84744263 52.59500122 309.91955566
v 328.8979187 52.59500122 312.14758301
v 332.74676514 52.59500122 310.34115601
v 332.58441162 52.59500122 310.74304199
v 332.36395264 52.59500122 311.11621094
v 332.09036255 52.59500122 311.45236206
v 331.76971436 52.59500122 311.74401855
v 331.81494141 52.59500122 307.20962524
v 331.45925903 52.59500122 306.96188354
v 331.07064819 52.59500122 306.76992798
v 332.12973022 52.59500122 307.50756836
v 332.39657593 52.59500122 307.84912109
v 332.60949707 52.59500122 308.22662354
v 332.76385498 52.59500122 308.63165283
v 332.85604858 52.59500122 309.05517578
v 318.83181763 52.59500122 301.82513428
v 316.65908813 52.59500122 307.20278931
v 316.27050781 52.59500122 307.01086426
v 315.91479492 52.59500122 306.76312256
v 315.60003662 52.59500122 306.46514893
v 315.33319092 52.59500122 306.12362671
v 315.12020874 52.59500122 305.74609375
v 314.96591187 52.59500122 305.34106445
v 314.87368774 52.59500122 304.91757202
v 314.84558105 52.59500122 304.48504639
v 314.8822937 52.59500122 304.05316162
v 314.98294067 52.59500122 303.63156128
v 331.40914917 52.59500122 311.98455811
v 329.73873901 52.59500122 312.34835815
v 329.31079102 52.59500122 312.27947998
v 331.01681519 52.59500122 312.16876221
v 330.60137939 52.59500122 312.2923584
v 330.17214966 52.59500122 312.35269165
v 315.14535522 52.59500122 303.22967529
v 315.36578369 52.59500122 302.85650635
v 318.41894531 52.59500122 301.69326782
v 315.96005249 52.59500122 302.22872925
v 316.32055664 52.59500122 301.98815918
v 317.99102783 52.59500122 301.62438965
v 315.63937378 52.59500122 302.52035522
v 316.71295166 52.59500122 301.80401611
v 317.12838745 52.59500122 301.6803894
v 317.55761719 52.59500122 301.62005615
vn 0.32796 0 -0.94469
vn 0.28039 0 -0.95989
vn 0.1835 0 -0.98302
vn 0.13419 0 -0.99096
vn 0.03494 0 -0.99939
vn -0.015 0 -0.99989
vn -0.1144 0 -0.99343
vn -0.16386 0 -0.98648
vn -0.26119 0 -0.96529
vn -0.30906 0 -0.95104
vn -0.40214 0 -0.91558
vn -0.44735 0 -0.89436
vn -0.53411 0 -0.84542
vn -0.57565 0 -0.8177
vn -0.65414 0 -0.75637
vn -0.69109 0 -0.72277
vn -0.75957 0 -0.65043
vn -0.7911 0 -0.61169
vn -0.84803 0 -0.52995
vn -0.87343 0 -0.48695
vn -0.91754 0 -0.39764
vn -0.93625 0 -0.35134
vn -0.96656 0 -0.25645
vn -0.97816 0 -0.20787
vn -0.99398 0 -0.10953
vn -0.99821 0 -0.05976
vn -0.99921 0 0.03984
vn -0.99597 0 0.08968
vn -0.98211 0 0.18832
vn -0.97148 0 0.23712
vn -0.94307 0 0.33259
vn -0.92529 0 0.37926
vn -0.88297 0 0.46944
vn -0.85843 0 0.51293
vn -0.80314 0 0.59579
vn -0.77239 0 0.63515
vn -0.70537 0 0.70884
vn -0.6691 0 0.74317
vn -0.59185 0 0.80605
vn -0.55086 0 0.8346
vn -0.4651 0 0.88526
vn -0.42032 0 0.90738
vn -0.37461 -0 0.92718
vn -0.32796 -0 0.94469
vn -0.28039 -0 0.95989
vn -0.1835 -0 0.98302
vn -0.13419 -0 0.99096
vn -0.03494 -0 0.99939
vn 0.015 -0 0.99989
vn 0.1144 -0 0.99343
vn 0.16386 -0 0.98648
vn 0.26119 -0 0.96529
vn 0.30906 -0 0.95104
vn 0.40214 -0 0.91558
vn 0.44735 -0 0.89436
vn 0.53411 -0 0.84542
vn 0.57565 -0 0.8177
vn 0.65414 -0 0.75637
vn 0.69109 -0 0.72277
vn 0.75957 -0 0.65043
vn 0.7911 -0 0.61169
vn 0.84803 -0 0.52995
vn 0.87343 -0 0.48695
vn 0.91754 -0 0.39764
vn 0.93625 -0 0.35134
vn 0.96656 -0 0.25645
vn 0.97816 -0 0.20787
vn 0.99398 -0 0.10953
vn 0.99821 -0 0.05976
vn 0.99921 -0 -0.03984
vn 0.99597 -0 -0.08968
vn 0.98211 -0 -0.18832
vn 0.97148 -0 -0.23712
vn 0.94307 -0 -0.33259
vn 0.92529 -0 -0.37926
vn 0.88297 -0 -0.46944
vn 0.85843 -0 -0.51293
vn 0.80314 -0 -0.59579
vn 0.77239 -0 -0.63515
vn 0.70537 -0 -0.70884
vn 0.6691 -0 -0.74317
vn 0.59185 -0 -0.80605
vn 0.55086 -0 -0.8346
vn 0.4651 -0 -0.88526
vn 0.42032 -0 -0.90738
vn 0.37461 0 -0.92718
vn 0 1 0
vn -0 -1 -0
vn 0.23162 -0.70799 -0.66717
vn 0.19802 -0.70799 -0.6779
vn 0.12959 -0.70799 -0.69423
vn 0.09477 -0.70799 -0.69984
vn 0.02468 -0.70799 -0.7058
vn -0.01059 -0.70799 -0.70615
vn -0.08079 -0.70799 -0.70159
vn -0.11572 -0.70799 -0.69668
vn -0.18446 -0.70799 -0.68171
vn -0.21826 -0.70799 -0.67165
vn -0.284 -0.70799 -0.64661
vn -0.31593 -0.70799 -0.63162
vn -0.3772 -0.70799 -0.59706
vn -0.40654 -0.70799 -0.57748
vn -0.46197 -0.70799 -0.53417
vn -0.48807 -0.70799 -0.51044
vn -0.53643 -0.70799 -0.45935
vn -0.55869 -0.70799 -0.43199
vn -0.5989 -0.70799 -0.37427
vn -0.61684 -0.70799 -0.3439
vn -0.64799 -0.70799 -0.28083
vn -0.6612 -0.70799 -0.24812
vn -0.68261 -0.70799 -0.18111
vn -0.6908 -0.70799 -0.1468
vn -0.70198 -0.70799 -0.07735
vn -0.70496 -0.70799 -0.04221
vn -0.70567 -0.70799 0.02814
vn -0.70338 -0.70799 0.06333
vn -0.69359 -0.70799 0.133
vn -0.68609 -0.70799 0.16746
vn -0.66602 -0.70799 0.23489
vn -0.65346 -0.70799 0.26785
vn -0.62357 -0.70799 0.33153
vn -0.60624 -0.70799 0.36225
vn -0.5672 -0.70799 0.42076
vn -0.54548 -0.70799 0.44856
vn -0.49815 -0.70799 0.5006
vn -0.47254 -0.70799 0.52485
vn -0.41798 -0.70799 0.56925
vn -0.38903 -0.70799 0.58941
vn -0.32847 -0.70799 0.62519
vn -0.29684 -0.70799 0.64081
vn -0.26489 -0.70711 0.65562
vn 0.26489 -0.70711 -0.65562
vn -0.23162 -0.70799 0.66717
vn -0.19802 -0.70799 0.6779
vn -0.12959 -0.70799 0.69423
vn -0.09477 -0.70799 0.69984
vn -0.02468 -0.70799 0.7058
vn 0.01059 -0.70799 0.70615
vn 0.08079 -0.70799 0.70159
vn 0.11572 -0.70799 0.69668
vn 0.18446 -0.70799 0.68171
vn 0.21826 -0.70799 0.67165
vn 0.284 -0.70799 0.64661
vn 0.31593 -0.70799 0.63162
vn 0.3772 -0.70799 0.59706
vn 0.40654 -0.70799 0.57748
vn 0.46197 -0.70799 0.53417
vn 0.48807 -0.70799 0.51044
vn 0.53643 -0.70799 0.45935
vn 0.55869 -0.70799 0.43199
vn 0.5989 -0.70799 0.37427
vn 0.61684 -0.70799 0.3439
vn 0.64799 -0.70799 0.28083
vn 0.6612 -0.70799 0.24812
vn 0.68261 -0.70799 0.18111
vn 0.6908 -0.70799 0.1468
vn 0.70198 -0.70799 0.07735
vn 0.70496 -0.70799 0.04221
vn 0.70567 -0.70799 -0.02814
vn 0.70338 -0.70799 -0.06333
vn 0.69359 -0.70799 -0.133
vn 0.68609 -0.70799 -0.16746
vn 0.66602 -0.70799 -0.23489
vn 0.65346 -0.70799 -0.26785
vn 0.62357 -0.70799 -0.33153
vn 0.60624 -0.70799 -0.36225
vn 0.5672 -0.70799 -0.42076
vn 0.54548 -0.70799 -0.44856
vn 0.49815 -0.70799 -0.5006
vn 0.47254 -0.70799 -0.52485
vn 0.41798 -0.70799 -0.56925
vn 0.38903 -0.70799 -0.58941
vn 0.32847 -0.70799 -0.62519
vn 0.29684 -0.70799 -0.64081
f 1//1 2//1 3//1
f 1//2 3//2 4//2
f 4//3 3//3 5//3
f 4//4 5//4 6//4
f 6//5 5//5 7//5
f 6//6 7//6 8//6
f 8//7 7//7 9//7
f 8//8 9//8 10//8
f 10//9 9//9 11//9
f 10//10 11//10 12//10
f 12//11 11//11 13//11
f 12//12 13//12 14//12
f 14//13 13//13 15//13
f 14//14 15//14 16//14
f 16//15 15//15 17//15
f 16//16 17//16 18//16
f 18//17 17//17 19//17
f 18//18 19//18 20//18
f 20//19 19//19 21//19
f 20//20 21//20 22//20
f 22//21 21//21 23//21
f 22//22 23//22 24//22
f 24//23 23//23 25//23
f 24//24 25//24 26//24
f 26//25 25//25 27//25
f 26//26 27//26 28//26
f 28//27 27//27 29//27
f 28//28 29//28 30//28
f 30//29 29//29 31//29
f 30//30 31//30 32//30
f 32//31 31//31 33//31
f 32//32 33//32 34//32
f 34//33 33//33 35//33
f 34//34 35//34 36//34
f 36//35 35//35 37//35
f 36//36 37//36 38//36
f 38//37 37//37 39//37
f 38//38 39//38 40//38
f 40//39 39//39 41//39
f 40//40 41//40 42//40
f 42//41 41//41 43//41
f 42//42 43//42 44//42
f 45//43 46//43 43//43
f 43//43 46//43 44//43
f 46//44 45//44 47//44
f 46//45 47//45 48//45
f 48//46 47//46 49//46
f 48//47 49//47 50//47
f 50//48 49//48 51//48
f 50//49 51//49 52//49
f 52//50 51//50 53//50
f 52//51 53//51 54//51
f 54//52 53//52 55//52
f 54//53 55//53 56//53
f 56//54 55//54 57//54
f 56//55 57//55 58//55
f 58//56 57//56 59//56
f 58//57 59//57 60//57
f 60//58 59//58 61//58
f 60//59 61//59 62//59
f 62//60 61//60 63//60
f 62//61 63//61 64//61
f 64//62 63//62 65//62
f 64//63 65//63 66//63
f 66//64 65//64 67//64
f 66//65 67//65 68//65
f 68//66 67//66 69//66
f 68//67 69//67 70//67
f 70//68 69//68 71//68
f 70//69 71//69 72//69
f 72//70 71//70 73//70
f 72//71 73//71 74//71
f 74//72 73//72 75//72
f 74//73 75//73 76//73
f 76//74 75//74 77//74
f 76//75 77//75 78//75
f 78//76 77//76 79//76
f 78//77 79//77 80//77
f 80//78 79//78 81//78
f 80//79 81//79 82//79
f 82//80 81//80 83//80
f 82//81 83//81 84//81
f 84//82 83//82 85//82
f 84//83 85//83 86//83
f 86//84 85//84 87//84
f 86//85 87//85 88//85
f 2//86 1//86 87//86
f 87//86 1//86 88//86
f 12//87 14//87 44//87
f 44//87 46//87 88//87
f 88//87 1//87 44//87
f 44//87 1//87 4//87
f 44//87 4//87 6//87
f 6//87 8//87 44//87
f 44//87 8//87 10//87
f 44//87 10//87 12//87
f 46//87 74//87 76//87
f 34//87 18//87 32//87
f 32//87 18//87 20//87
f 32//87 20//87 22//87
f 34//87 36//87 18//87
f 18//87 36//87 38//87
f 18//87 38//87 40//87
f 14//87 16//87 44//87
f 44//87 16//87 18//87
f 44//87 18//87 42//87
f 42//87 18//87 40//87
f 46//87 48//87 74//87
f 74//87 48//87 50//87
f 74//87 50//87 52//87
f 58//87 60//87 66//87
f 66//87 60//87 62//87
f 66//87 62//87 64//87
f 58//87 66//87 56//87
f 56//87 66//87 68//87
f 56//87 68//87 70//87
f 76//87 78//87 46//87
f 46//87 78//87 80//87
f 46//87 80//87 82//87
f 82//87 84//87 46//87
f 46//87 84//87 86//87
f 46//87 86//87 88//87
f 22//87 24//87 32//87
f 32//87 24//87 26//87
f 32//87 26//87 30//87
f 30//87 26//87 28//87
f 52//87 54//87 74//87
f 74//87 54//87 56//87
f 74//87 56//87 72//87
f 72//87 56//87 70//87
f 89//88 90//88 91//88
f 91//88 90//88 92//88
f 91//88 92//88 93//88
f 93//88 94//88 91//88
f 91//88 94//88 95//88
f 91//88 95//88 96//88
f 97//88 91//88 98//88
f 98//88 91//88 99//88
f 97//88 100//88 91//88
f 91//88 100//88 101//88
f 91//88 101//88 102//88
f 102//88 103//88 91//88
f 91//88 103//88 104//88
f 91//88 104//88 89//88
f 99//88 91//88 105//88
f 105//88 91//88 106//88
f 105//88 106//88 107//88
f 107//88 108//88 105//88
f 105//88 108//88 109//88
f 105//88 109//88 110//88
f 110//88 111//88 105//88
f 105//88 111//88 112//88
f 105//88 112//88 113//88
f 113//88 114//88 105//88
f 105//88 114//88 115//88
f 105//88 115//88 116//88
f 117//88 118//88 96//88
f 96//88 118//88 119//88
f 96//88 119//88 91//88
f 117//88 120//88 118//88
f 118//88 120//88 121//88
f 118//88 121//88 122//88
f 116//88 123//88 105//88
f 105//88 123//88 124//88
f 105//88 124//88 125//88
f 126//88 127//88 128//88
f 125//88 124//88 128//88
f 128//88 124//88 129//88
f 128//88 129//88 126//88
f 127//88 130//88 128//88
f 128//88 130//88 131//88
f 128//88 131//88 132//88
f 2//89 105//89 3//89
f 3//90 105//90 125//90
f 3//91 125//91 5//91
f 5//92 125//92 128//92
f 5//93 128//93 7//93
f 7//94 128//94 132//94
f 7//95 132//95 9//95
f 9//96 132//96 131//96
f 9//97 131//97 11//97
f 11//98 131//98 130//98
f 11//99 130//99 13//99
f 13//100 130//100 127//100
f 13//101 127//101 15//101
f 15//102 127//102 126//102
f 15//103 126//103 17//103
f 17//104 126//104 129//104
f 17//105 129//105 19//105
f 19//106 129//106 124//106
f 19//107 124//107 21//107
f 21//108 124//108 123//108
f 21//109 123//109 23//109
f 23//110 123//110 116//110
f 23//111 116//111 25//111
f 25//112 116//112 115//112
f 25//113 115//113 27//113
f 27//114 115//114 114//114
f 27//115 114//115 29//115
f 29//116 114//116 113//116
f 29//117 113//117 31//117
f 31//118 113//118 112//118
f 31//119 112//119 33//119
f 33//120 112//120 111//120
f 33//121 111//121 35//121
f 35//122 111//122 110//122
f 35//123 110//123 37//123
f 37//124 110//124 109//124
f 37//125 109//125 39//125
f 39//126 109//126 108//126
f 39//127 108//127 41//127
f 41//128 108//128 107//128
f 41//129 107//129 43//129
f 43//130 107//130 106//130
f 91//131 45//131 106//131
f 106//131 45//131 43//131
f 87//132 99//132 2//132
f 2//132 99//132 105//132
f 45//133 91//133 47//133
f 47//134 91//134 119//134
f 47//135 119//135 49//135
f 49//136 119//136 118//136
f 49//137 118//137 51//137
f 51//138 118//138 122//138
f 51//139 122//139 53//139
f 53//140 122//140 121//140
f 53//141 121//141 55//141
f 55//142 121//142 120//142
f 55//143 120//143 57//143
f 57//144 120//144 117//144
f 57//145 117//145 59//145
f 59//146 117//146 96//146
f 59//147 96//147 61//147
f 61//148 96//148 95//148
f 61//149 95//149 63//149
f 63//150 95//150 94//150
f 63//151 94//151 65//151
f 65//152 94//152 93//152
f 65//153 93//153 67//153
f 67//154 93//154 92//154
f 67//155 92//155 69//155
f 69//156 92//156 90//156
f 69//157 90//157 71//157
f 71//158 90//158 89//158
f 71//159 89//159 73//159
f 73//160 89//160 104//160
f 73//161 104//161 75//161
f 75//162 104//162 103//162
f 75//163 103//163 77//163
f 77//164 103//164 102//164
f 77//165 102//165 79//165
f 79//166 102//166 101//166
f 79//167 101//167 81//167
f 81//168 101//168 100//168
f 81//169 100//169 83//169
f 83//170 100//170 97//170
f 83//171 97//171 85//171
f 85//172 97//172 98//172
f 85//173 98//173 87//173
f 87//174 98//174 99//174
# Vertices: 132, normals: 174, texture coordinates: 0, faces: 260

